<svg width="637" height="119" viewBox="0 0 637 119" fill="none" xmlns="http://www.w3.org/2000/svg">
<path fill-rule="evenodd" clip-rule="evenodd" d="M15.5222 13.3636L88.7232 4.41765C94.2053 3.74769 99.1975 7.64804 99.8737 13.1293L108.734 84.9532C109.41 90.4345 105.514 95.421 100.032 96.091L47.1791 102.55L32.3584 116.175L29.7892 104.675L26.8311 105.037C21.3491 105.707 16.3568 101.807 15.6807 96.3253L6.82039 24.5015C6.14422 19.0202 10.0402 14.0336 15.5222 13.3636Z" fill="#A6A8A9" style="fill:#A6A8A9;fill:color(display-p3 0.6510 0.6588 0.6627);fill-opacity:1;"/>
<path d="M103.263 2.8335H29.511C23.9881 2.8335 19.511 7.31065 19.511 12.8335V85.1953C19.511 90.7182 23.9881 95.1953 29.511 95.1953H103.263C108.786 95.1953 113.263 90.7182 113.263 85.1953V12.8335C113.263 7.31065 108.786 2.8335 103.263 2.8335Z" fill="#212529" style="fill:#212529;fill:color(display-p3 0.1294 0.1451 0.1608);fill-opacity:1;"/>
<path d="M69.3533 37.6073C71.945 37.5639 74.4981 38.2363 76.7291 39.5498C78.9307 40.8878 80.6952 42.8327 81.8089 45.1486C83.0858 47.823 83.7149 50.7581 83.6457 53.7183C83.7188 56.6972 83.0897 59.6517 81.8089 62.345C80.6952 64.661 78.9307 66.6058 76.7291 67.9439C74.4981 69.2574 71.945 69.9298 69.3533 69.8863C66.7426 69.9623 64.1735 69.2231 62.0061 67.7725C60.0171 66.4148 58.5261 64.4495 57.7586 62.1737V69.4864H51.2151V27.2095H57.7586V45.32C58.5261 43.0442 60.0171 41.0789 62.0061 39.7212C64.1735 38.2705 66.7426 37.5314 69.3533 37.6073ZM67.3443 43.3204C65.6119 43.293 63.9049 43.7375 62.4079 44.6059C60.9382 45.4792 59.7448 46.7462 58.964 48.2623C58.0969 49.9492 57.663 51.8237 57.7012 53.7183C57.6562 55.6226 58.0903 57.508 58.964 59.2028C59.7512 60.707 60.9438 61.9632 62.4079 62.8307C63.9049 63.699 65.6119 64.1435 67.3443 64.1161C68.6419 64.1724 69.9367 63.9545 71.1437 63.477C72.3507 62.9994 73.4424 62.2729 74.347 61.3453C76.1072 59.498 76.9874 56.9557 76.9874 53.7183C77.1379 50.9395 76.1903 48.2123 74.347 46.1198C73.4468 45.1845 72.3565 44.4511 71.149 43.9683C69.9415 43.4856 68.6444 43.2647 67.3443 43.3204Z" fill="white" style="fill:white;fill:white;fill-opacity:1;"/>
<path d="M169.194 52.6801C171.715 53.2175 173.741 54.4781 175.27 56.4621C176.799 58.4048 177.564 60.6368 177.564 63.1581C177.564 66.7954 176.283 69.6888 173.72 71.8381C171.199 73.9461 167.665 75.0001 163.118 75.0001H142.844V31.4761H162.436C166.859 31.4761 170.31 32.4888 172.79 34.5141C175.311 36.5394 176.572 39.2881 176.572 42.7601C176.572 45.3228 175.89 47.4514 174.526 49.1461C173.203 50.8408 171.426 52.0188 169.194 52.6801ZM153.446 49.0841H160.39C162.126 49.0841 163.449 48.7121 164.358 47.9681C165.309 47.1828 165.784 46.0461 165.784 44.5581C165.784 43.0701 165.309 41.9335 164.358 41.1481C163.449 40.3628 162.126 39.9701 160.39 39.9701H153.446V49.0841ZM161.258 66.4441C163.035 66.4441 164.399 66.0515 165.35 65.2661C166.342 64.4395 166.838 63.2615 166.838 61.7321C166.838 60.2028 166.321 59.0041 165.288 58.1361C164.296 57.2681 162.911 56.8341 161.134 56.8341H153.446V66.4441H161.258Z" fill="#212529" style="fill:#212529;fill:color(display-p3 0.1294 0.1451 0.1608);fill-opacity:1;"/>
<path d="M194.315 29.1201V75.0001H183.713V29.1201H194.315Z" fill="#212529" style="fill:#212529;fill:color(display-p3 0.1294 0.1451 0.1608);fill-opacity:1;"/>
<path d="M217.746 75.4962C214.357 75.4962 211.298 74.7729 208.57 73.3262C205.884 71.8796 203.755 69.8129 202.184 67.1262C200.655 64.4396 199.89 61.2982 199.89 57.7022C199.89 54.1475 200.676 51.0269 202.246 48.3402C203.817 45.6122 205.966 43.5249 208.694 42.0782C211.422 40.6315 214.481 39.9082 217.87 39.9082C221.26 39.9082 224.318 40.6315 227.046 42.0782C229.774 43.5249 231.924 45.6122 233.494 48.3402C235.065 51.0269 235.85 54.1475 235.85 57.7022C235.85 61.2569 235.044 64.3982 233.432 67.1262C231.862 69.8129 229.692 71.8796 226.922 73.3262C224.194 74.7729 221.136 75.4962 217.746 75.4962ZM217.746 66.3202C219.772 66.3202 221.487 65.5762 222.892 64.0882C224.339 62.6002 225.062 60.4715 225.062 57.7022C225.062 54.9329 224.36 52.8042 222.954 51.3162C221.59 49.8282 219.896 49.0842 217.87 49.0842C215.804 49.0842 214.088 49.8282 212.724 51.3162C211.36 52.7629 210.678 54.8915 210.678 57.7022C210.678 60.4715 211.34 62.6002 212.662 64.0882C214.026 65.5762 215.721 66.3202 217.746 66.3202Z" fill="#212529" style="fill:#212529;fill:color(display-p3 0.1294 0.1451 0.1608);fill-opacity:1;"/>
<path d="M239.367 57.7022C239.367 54.1062 240.09 50.9649 241.537 48.2782C243.025 45.5915 245.071 43.5249 247.675 42.0782C250.32 40.6315 253.338 39.9082 256.727 39.9082C261.067 39.9082 264.684 41.0449 267.577 43.3182C270.512 45.5915 272.434 48.7949 273.343 52.9282H262.059C261.108 50.2829 259.269 48.9602 256.541 48.9602C254.598 48.9602 253.048 49.7249 251.891 51.2542C250.734 52.7422 250.155 54.8915 250.155 57.7022C250.155 60.5129 250.734 62.6829 251.891 64.2122C253.048 65.7002 254.598 66.4442 256.541 66.4442C259.269 66.4442 261.108 65.1215 262.059 62.4762H273.343C272.434 66.5269 270.512 69.7095 267.577 72.0242C264.642 74.3389 261.026 75.4962 256.727 75.4962C253.338 75.4962 250.32 74.7729 247.675 73.3262C245.071 71.8796 243.025 69.8129 241.537 67.1262C240.09 64.4396 239.367 61.2982 239.367 57.7022Z" fill="#212529" style="fill:#212529;fill:color(display-p3 0.1294 0.1451 0.1608);fill-opacity:1;"/>
<path d="M300.156 75.0001L289.616 60.4921V75.0001H279.014V29.1201H289.616V54.4781L300.094 40.4041H313.176L298.792 57.7641L313.3 75.0001H300.156Z" fill="#212529" style="fill:#212529;fill:color(display-p3 0.1294 0.1451 0.1608);fill-opacity:1;"/>
<path d="M331.414 75.4962C328.397 75.4962 325.71 74.9796 323.354 73.9462C320.998 72.9129 319.138 71.5076 317.774 69.7302C316.41 67.9116 315.645 65.8862 315.48 63.6542H325.958C326.082 64.8529 326.64 65.8242 327.632 66.5682C328.624 67.3122 329.843 67.6842 331.29 67.6842C332.613 67.6842 333.625 67.4362 334.328 66.9402C335.072 66.4029 335.444 65.7209 335.444 64.8942C335.444 63.9022 334.927 63.1789 333.894 62.7242C332.861 62.2282 331.187 61.6909 328.872 61.1122C326.392 60.5336 324.325 59.9342 322.672 59.3142C321.019 58.6529 319.593 57.6402 318.394 56.2762C317.195 54.8709 316.596 52.9902 316.596 50.6342C316.596 48.6502 317.133 46.8522 318.208 45.2402C319.324 43.5869 320.936 42.2849 323.044 41.3342C325.193 40.3835 327.735 39.9082 330.67 39.9082C335.01 39.9082 338.42 40.9829 340.9 43.1322C343.421 45.2816 344.868 48.1335 345.24 51.6882H335.444C335.279 50.4895 334.741 49.5389 333.832 48.8362C332.964 48.1336 331.807 47.7822 330.36 47.7822C329.12 47.7822 328.169 48.0302 327.508 48.5262C326.847 48.9809 326.516 49.6216 326.516 50.4482C326.516 51.4402 327.033 52.1842 328.066 52.6802C329.141 53.1762 330.794 53.6722 333.026 54.1682C335.589 54.8295 337.676 55.4909 339.288 56.1522C340.9 56.7722 342.305 57.8056 343.504 59.2522C344.744 60.6576 345.385 62.5589 345.426 64.9562C345.426 66.9816 344.847 68.8002 343.69 70.4122C342.574 71.9829 340.941 73.2229 338.792 74.1322C336.684 75.0416 334.225 75.4962 331.414 75.4962Z" fill="#212529" style="fill:#212529;fill:color(display-p3 0.1294 0.1451 0.1608);fill-opacity:1;"/>
<path d="M349.804 57.7022C349.804 54.1062 350.528 50.9649 351.974 48.2782C353.462 45.5915 355.508 43.5249 358.112 42.0782C360.758 40.6315 363.775 39.9082 367.164 39.9082C371.504 39.9082 375.121 41.0449 378.014 43.3182C380.949 45.5915 382.871 48.7949 383.78 52.9282H372.496C371.546 50.2829 369.706 48.9602 366.978 48.9602C365.036 48.9602 363.486 49.7249 362.328 51.2542C361.171 52.7422 360.592 54.8915 360.592 57.7022C360.592 60.5129 361.171 62.6829 362.328 64.2122C363.486 65.7002 365.036 66.4442 366.978 66.4442C369.706 66.4442 371.546 65.1215 372.496 62.4762H383.78C382.871 66.5269 380.949 69.7095 378.014 72.0242C375.08 74.3389 371.463 75.4962 367.164 75.4962C363.775 75.4962 360.758 74.7729 358.112 73.3262C355.508 71.8796 353.462 69.8129 351.974 67.1262C350.528 64.4396 349.804 61.2982 349.804 57.7022Z" fill="#212529" style="fill:#212529;fill:color(display-p3 0.1294 0.1451 0.1608);fill-opacity:1;"/>
<path d="M387.343 57.6402C387.343 54.0855 388.005 50.9649 389.327 48.2782C390.691 45.5915 392.531 43.5249 394.845 42.0782C397.16 40.6315 399.743 39.9082 402.595 39.9082C405.034 39.9082 407.163 40.4042 408.981 41.3962C410.841 42.3882 412.267 43.6902 413.259 45.3022V40.4042H423.861V75.0002H413.259V70.1022C412.226 71.7142 410.779 73.0162 408.919 74.0082C407.101 75.0002 404.972 75.4962 402.533 75.4962C399.723 75.4962 397.16 74.7729 394.845 73.3262C392.531 71.8382 390.691 69.7509 389.327 67.0642C388.005 64.3362 387.343 61.1949 387.343 57.6402ZM413.259 57.7022C413.259 55.0569 412.515 52.9696 411.027 51.4402C409.581 49.9109 407.803 49.1462 405.695 49.1462C403.587 49.1462 401.789 49.9109 400.301 51.4402C398.855 52.9282 398.131 54.9949 398.131 57.6402C398.131 60.2856 398.855 62.3936 400.301 63.9642C401.789 65.4936 403.587 66.2582 405.695 66.2582C407.803 66.2582 409.581 65.4936 411.027 63.9642C412.515 62.4349 413.259 60.3475 413.259 57.7022Z" fill="#212529" style="fill:#212529;fill:color(display-p3 0.1294 0.1451 0.1608);fill-opacity:1;"/>
<path d="M452.611 40.032C456.662 40.032 459.886 41.3547 462.284 44C464.722 46.604 465.941 50.2 465.941 54.788V75H455.401V56.214C455.401 53.8993 454.802 52.1013 453.603 50.82C452.405 49.5387 450.793 48.898 448.767 48.898C446.742 48.898 445.13 49.5387 443.931 50.82C442.733 52.1013 442.133 53.8993 442.133 56.214V75H431.531V40.404H442.133V44.992C443.208 43.4627 444.655 42.264 446.473 41.396C448.292 40.4867 450.338 40.032 452.611 40.032Z" fill="#212529" style="fill:#212529;fill:color(display-p3 0.1294 0.1451 0.1608);fill-opacity:1;"/>
<path d="M484.65 53.176C484.65 48.8773 485.58 45.054 487.44 41.706C489.3 38.3167 491.883 35.692 495.19 33.832C498.538 31.9307 502.32 30.98 506.536 30.98C511.702 30.98 516.125 32.344 519.803 35.072C523.482 37.8 525.942 41.52 527.182 46.232H515.526C514.658 44.4134 513.418 43.0287 511.806 42.078C510.235 41.1273 508.437 40.652 506.411 40.652C503.146 40.652 500.501 41.7887 498.476 44.062C496.45 46.3353 495.438 49.3734 495.438 53.176C495.438 56.9787 496.45 60.0167 498.476 62.29C500.501 64.5633 503.146 65.7 506.411 65.7C508.437 65.7 510.235 65.2247 511.806 64.274C513.418 63.3233 514.658 61.9387 515.526 60.12H527.182C525.942 64.832 523.482 68.552 519.803 71.28C516.125 73.9667 511.702 75.31 506.536 75.31C502.32 75.31 498.538 74.38 495.19 72.52C491.883 70.6187 489.3 67.994 487.44 64.646C485.58 61.298 484.65 57.4747 484.65 53.176Z" fill="#212529" style="fill:#212529;fill:color(display-p3 0.1294 0.1451 0.1608);fill-opacity:1;"/>
<path d="M554.94 40.0321C558.908 40.0321 562.091 41.3548 564.488 44.0001C566.885 46.6041 568.084 50.2001 568.084 54.7881V75.0001H557.544V56.2141C557.544 53.8994 556.945 52.1014 555.746 50.8201C554.547 49.5388 552.935 48.8981 550.91 48.8981C548.885 48.8981 547.273 49.5388 546.074 50.8201C544.875 52.1014 544.276 53.8994 544.276 56.2141V75.0001H533.674V29.1201H544.276V45.0541C545.351 43.5248 546.818 42.3054 548.678 41.3961C550.538 40.4868 552.625 40.0321 554.94 40.0321Z" fill="#212529" style="fill:#212529;fill:color(display-p3 0.1294 0.1451 0.1608);fill-opacity:1;"/>
<path d="M573.343 57.6402C573.343 54.0855 574.005 50.9649 575.327 48.2782C576.691 45.5915 578.531 43.5249 580.845 42.0782C583.16 40.6315 585.743 39.9082 588.595 39.9082C591.034 39.9082 593.163 40.4042 594.981 41.3962C596.841 42.3882 598.267 43.6902 599.259 45.3022V40.4042H609.861V75.0002H599.259V70.1022C598.226 71.7142 596.779 73.0162 594.919 74.0082C593.101 75.0002 590.972 75.4962 588.533 75.4962C585.723 75.4962 583.16 74.7729 580.845 73.3262C578.531 71.8382 576.691 69.7509 575.327 67.0642C574.005 64.3362 573.343 61.1949 573.343 57.6402ZM599.259 57.7022C599.259 55.0569 598.515 52.9696 597.027 51.4402C595.581 49.9109 593.803 49.1462 591.695 49.1462C589.587 49.1462 587.789 49.9109 586.301 51.4402C584.855 52.9282 584.131 54.9949 584.131 57.6402C584.131 60.2856 584.855 62.3936 586.301 63.9642C587.789 65.4936 589.587 66.2582 591.695 66.2582C593.803 66.2582 595.581 65.4936 597.027 63.9642C598.515 62.4349 599.259 60.3475 599.259 57.7022Z" fill="#212529" style="fill:#212529;fill:color(display-p3 0.1294 0.1451 0.1608);fill-opacity:1;"/>
<path d="M636.814 66.0102V75.0002H631.419C627.575 75.0002 624.579 74.0702 622.43 72.2102C620.28 70.3089 619.206 67.2296 619.206 62.9722V49.2082H614.99V40.4042H619.206V31.9722H629.807V40.4042H636.751V49.2082H629.807V63.0962C629.807 64.1296 630.055 64.8736 630.551 65.3282C631.047 65.7829 631.874 66.0102 633.031 66.0102H636.814Z" fill="#212529" style="fill:#212529;fill:color(display-p3 0.1294 0.1451 0.1608);fill-opacity:1;"/>
</svg>
